<?xml version="1.0" encoding="UTF-8" standalone="no"?>
<svg
   xmlns:dc="http://purl.org/dc/elements/1.1/"
   xmlns:cc="http://creativecommons.org/ns#"
   xmlns:rdf="http://www.w3.org/1999/02/22-rdf-syntax-ns#"
   xmlns:svg="http://www.w3.org/2000/svg"
   xmlns="http://www.w3.org/2000/svg"
   xmlns:sodipodi="http://sodipodi.sourceforge.net/DTD/sodipodi-0.dtd"
   xmlns:inkscape="http://www.inkscape.org/namespaces/inkscape"
   id="Layer_1"
   data-name="Layer 1"
   viewBox="0 0 327.68999 84.966857"
   version="1.1"
   sodipodi:docname="BIzzcontrol_logo-02-fit.svg"
   width="327.69"
   height="84.966858"
   inkscape:version="1.0.2-2 (e86c870879, 2021-01-15)"
   inkscape:export-filename="C:\Users\LodeCools\Bizzcontrol BV\Marketing - Documents\Pictures\Logo\BIzzcontrol_logo-02-fit-no-background.png"
   inkscape:export-xdpi="116.92"
   inkscape:export-ydpi="116.92">
  <metadata
     id="metadata47">
    <rdf:RDF>
      <cc:Work
         rdf:about="">
        <dc:format>image/svg+xml</dc:format>
        <dc:type
           rdf:resource="http://purl.org/dc/dcmitype/StillImage" />
        <dc:title>BIzzcontrol_logo</dc:title>
      </cc:Work>
    </rdf:RDF>
  </metadata>
  <sodipodi:namedview
     pagecolor="#ffffff"
     bordercolor="#666666"
     borderopacity="1"
     objecttolerance="10"
     gridtolerance="10"
     guidetolerance="10"
     inkscape:pageopacity="0"
     inkscape:pageshadow="2"
     inkscape:window-width="1920"
     inkscape:window-height="1027"
     id="namedview45"
     showgrid="false"
     inkscape:pagecheckerboard="true"
     inkscape:zoom="2.4506114"
     inkscape:cx="163.67001"
     inkscape:cy="42.194558"
     inkscape:window-x="1912"
     inkscape:window-y="-8"
     inkscape:window-maximized="1"
     inkscape:current-layer="Layer_1" />
  <defs
     id="defs4">
    <style
       id="style2">.cls-1{fill:#16285a;}.cls-2{fill:#006487;}.cls-3{fill:#cccccb;}</style>
  </defs>
  <title
     id="title6">BIzzcontrol_logo</title>
  <path
     class="cls-1"
     d="m 76.5,58.284557 v -31.6 a 10.89,10.89 0 0 0 -5.43,-9.43 L 43.69,1.4545567 a 10.9,10.9 0 0 0 -10.88,0 L 5.44,17.254557 a 10.91,10.91 0 0 0 -5.44,9.43 v 31.6 a 10.88,10.88 0 0 0 5.44,9.42 l 27.37,15.8 a 10.85,10.85 0 0 0 10.88,0 l 27.38,-15.8 a 10.86,10.86 0 0 0 5.43,-9.42 z"
     id="path8" />
  <polygon
     class="cls-2"
     points="79.59,55.84 88.45,50.78 120.06,67.22 110.57,72.91 "
     id="polygon10"
     transform="translate(-48.93,-42.845443)" />
  <polygon
     class="cls-2"
     points="68.21,73.86 77.07,68.8 108.68,85.24 99.19,90.93 "
     id="polygon12"
     transform="translate(-48.93,-42.845443)" />
  <polygon
     class="cls-2"
     points="56.83,91.88 65.69,86.82 97.3,103.26 87.81,108.95 "
     id="polygon14"
     transform="translate(-48.93,-42.845443)" />
  <polygon
     class="cls-3"
     points="110.57,72.76 120.06,67.13 120.06,103.17 110.57,108.8 "
     id="polygon16"
     transform="translate(-48.93,-42.845443)" />
  <polygon
     class="cls-3"
     points="99.19,90.9 108.68,85.27 108.68,109.93 99.19,115.56 "
     id="polygon18"
     transform="translate(-48.93,-42.845443)" />
  <polygon
     class="cls-3"
     points="87.81,109.04 97.3,103.41 97.3,116.68 87.81,122.31 "
     id="polygon20"
     transform="translate(-48.93,-42.845443)" />
  <path
     class="cls-2"
     d="m 89.62,25.424557 h 11.83 c 6.53,0 9.69,3.32 9.69,9.23 0,3.77 -1,5.87 -4.43,7.29 3.36,0.87 5.86,3.47 5.86,8.62 0,7.14 -4,10.15 -11.06,10.15 H 89.62 Z m 10.87,14.53 c 3.41,0 4.33,-1.58 4.33,-4.74 0,-3.16 -1.12,-4.69 -4.54,-4.69 h -4.59 v 9.43 z m 0.05,15.66 c 3.92,0 5.45,-1.63 5.45,-5.36 0,-3.51 -1.27,-5.3 -5.35,-5.3 h -4.95 v 10.66 z"
     id="path22" />
  <path
     class="cls-2"
     d="m 117.83,57.294557 3.52,-0.56 v -27.33 l -3.52,-0.61 v -3.37 h 13.24 v 3.37 l -3.52,0.61 v 27.33 l 3.52,0.56 v 3.42 h -13.24 z"
     id="path24" />
  <path
     class="cls-1"
     d="m 136.07,56.224557 11,-16.72 h -10 v -4.59 h 16.32 v 4.59 l -10.83,16.57 h 11.12 v 4.64 h -17.61 z"
     id="path26" />
  <path
     class="cls-1"
     d="m 157.91,56.224557 11,-16.72 h -10 v -4.59 h 16.32 v 4.59 l -10.84,16.57 h 11.12 v 4.64 h -17.6 z"
     id="path28" />
  <path
     class="cls-1"
     d="m 179.94,47.764557 c 0,-9.69 3.78,-13.52 10.51,-13.52 a 10.18,10.18 0 0 1 7.65,3 l -3,3.88 a 5.58,5.58 0 0 0 -4.39,-2.09 c -3.31,0 -4.53,1.37 -4.53,8.66 0,7.29 1.27,9 4.79,9 2,0 3.16,-0.92 4.49,-2.14 l 2.85,3.82 a 10.16,10.16 0 0 1 -7.7,3.06 c -7.1,-0.06 -10.67,-4.39 -10.67,-13.67 z"
     id="path30" />
  <path
     class="cls-1"
     d="m 201.98,47.764557 c 0,-9.74 4.13,-13.52 10.81,-13.52 6.68,0 10.91,3.91 10.91,13.57 0,9.66 -4.18,13.56 -10.86,13.56 -6.68,0 -10.86,-3.92 -10.86,-13.61 z m 15.5,0 c 0,-7.4 -1.33,-9.13 -4.69,-9.13 -3.36,0 -4.64,1.78 -4.64,9.18 0,7.4 1.32,9.18 4.69,9.18 3.37,0 4.64,-1.94 4.64,-9.23 z"
     id="path32" />
  <path
     class="cls-1"
     d="m 229.82,34.914557 h 4.64 l 0.62,2.8 a 10.52,10.52 0 0 1 7.59,-3.47 c 4.08,0 6.48,1.89 6.48,6.73 v 19.74 h -5.81 v -18.26 c 0,-2.7 -0.87,-3.36 -2.76,-3.36 a 7.57,7.57 0 0 0 -4.94,2.29 v 19.33 h -5.82 z"
     id="path34" />
  <path
     class="cls-1"
     d="m 254.35,34.914557 h 2.81 v -6.48 l 5.76,-1.12 v 7.6 h 5 v 4.48 h -5 v 14.94 c 0,1.94 0.66,2.55 2,2.55 a 7,7 0 0 0 2.55,-0.61 l 0.92,4 a 9.53,9.53 0 0 1 -4.49,1.07 c -4,0 -6.73,-1.48 -6.73,-6 v -16 h -2.81 z"
     id="path36" />
  <path
     class="cls-1"
     d="m 273.63,34.914557 h 4.64 l 0.67,3.26 a 8.55,8.55 0 0 1 6.73,-3.72 6.32,6.32 0 0 1 1.53,0.2 l -0.92,6 a 4.33,4.33 0 0 0 -2.09,-0.46 6.61,6.61 0 0 0 -4.75,1.88 v 18.67 h -5.81 z"
     id="path38" />
  <path
     class="cls-1"
     d="m 290.61,47.764557 c 0,-9.74 4.13,-13.52 10.81,-13.52 6.68,0 10.92,3.91 10.92,13.57 0,9.66 -4.18,13.56 -10.86,13.56 -6.68,0 -10.87,-3.92 -10.87,-13.61 z m 15.51,0 c 0,-7.4 -1.33,-9.13 -4.7,-9.13 -3.37,0 -4.64,1.78 -4.64,9.18 0,7.4 1.33,9.18 4.7,9.18 3.37,0 4.64,-1.94 4.64,-9.23 z"
     id="path40" />
  <path
     class="cls-1"
     d="m 318.51,54.034557 v -30.45 h 5.81 v 31.16 c 0,1.63 0.41,2 1.84,2 a 7.76,7.76 0 0 0 0.82,0 l 0.71,3.93 a 11.71,11.71 0 0 1 -3.67,0.66 c -4.39,-0.06 -5.51,-2.25 -5.51,-7.3 z"
     id="path42" />
</svg>
