<svg xmlns="http://www.w3.org/2000/svg" viewBox="0 0 1080 1080"><defs><style>.cls-1{fill:#1d1d1b}.cls-2,.cls-3{fill:#d50000}.cls-3{opacity:.7}</style></defs><g id="logo"><path class="cls-1" d="M263.09 562v-12.23a43.64 43.64 0 0 0 9.06-.76 10.19 10.19 0 0 0 5.35-2.71 11.17 11.17 0 0 0 2.64-5.66 48.71 48.71 0 0 0 .75-9.43v-94.28h16.9v94.59q0 10.56-2.26 17.27a17.33 17.33 0 0 1-8 10Q281.8 562 271.24 562ZM335.8 560.33q-10.71 0-17.19-6.71t-7.4-17.73l13.43-4.07q1.22 8.29 4.07 12.44a9.6 9.6 0 0 0 8.45 4.15q4.38 0 6.64-2.49a9.58 9.58 0 0 0 2.26-6.71 13.82 13.82 0 0 0-1.66-6.79 22.88 22.88 0 0 0-5.43-6.18L324 513.41a40.11 40.11 0 0 1-7.62-8.75q-3.09-4.82-3.09-12.52a22.76 22.76 0 0 1 2.79-11.69 18.19 18.19 0 0 1 7.84-7.24 26.51 26.51 0 0 1 11.84-2.49q10.41 0 15.92 6.72a28.48 28.48 0 0 1 6.32 16.21l-10.86 4.08a40 40 0 0 0-1.81-7.92 12.48 12.48 0 0 0-3.32-5.28 8.06 8.06 0 0 0-5.58-1.89 7.94 7.94 0 0 0-6.26 2.64 9.13 9.13 0 0 0-2.34 6.26 10.68 10.68 0 0 0 1 4.45 12.81 12.81 0 0 0 3.39 4.3l15.39 14.18a63.37 63.37 0 0 1 6 6.18 30.2 30.2 0 0 1 4.6 7.55 24.62 24.62 0 0 1 1.81 9.8 23.5 23.5 0 0 1-3 12.37 18.74 18.74 0 0 1-8.45 7.47 30.09 30.09 0 0 1-12.77 2.49ZM372 587.78V471.93h16.14v6.94a27.77 27.77 0 0 1 6.94-5.73 18.56 18.56 0 0 1 9.65-2.42q6.79 0 10.79 3.55a21.64 21.64 0 0 1 6 8.9 46.33 46.33 0 0 1 2.53 10.83 88.92 88.92 0 0 1 .6 9.43v21.12a80.66 80.66 0 0 1-1.81 17.45 27.43 27.43 0 0 1-6.56 13.27q-4.75 5.06-13.35 5.06a15 15 0 0 1-8.3-2.34 35.14 35.14 0 0 1-6.48-5.36v35.15Zm27.75-40.12q4.23 0 6-3.1a20.08 20.08 0 0 0 2.26-8.37q.45-5.28.45-11.61v-21.12a77.73 77.73 0 0 0-.6-10 16 16 0 0 0-2.56-7.32c-1.31-1.81-3.38-2.72-6.19-2.72a14.06 14.06 0 0 0-6 1.36 22 22 0 0 0-5 3.17v55.81a22.9 22.9 0 0 0 5.13 2.8 17.61 17.61 0 0 0 6.52 1.1ZM439.74 559.12v-87.19h16.14v12.37q4.83-8 9.65-10.71a19.57 19.57 0 0 1 9.66-2.72h1.13a10.68 10.68 0 0 1 1.43.15v17.8a26.37 26.37 0 0 0-4.14-1.28 21.77 21.77 0 0 0-4.76-.53 13.75 13.75 0 0 0-6.86 1.74q-3.09 1.74-6.11 6.71v63.66ZM511.85 560.33q-10.26 0-15.84-4t-7.77-11.77a71.26 71.26 0 0 1-2.19-19.08v-19.91q0-11.61 2.26-19.31a20.67 20.67 0 0 1 7.92-11.62q5.65-3.92 15.62-3.92 11 0 16.21 4.53t6.87 13.05a109.14 109.14 0 0 1 1.65 20.44v7.09h-34.39v17.5a31.17 31.17 0 0 0 1 8.59 8.9 8.9 0 0 0 3.17 4.91 9.43 9.43 0 0 0 5.66 1.58 7.89 7.89 0 0 0 5.5-1.73 9.13 9.13 0 0 0 2.57-5 37.74 37.74 0 0 0 .68-7.62v-5.26h15.68v3.32q0 13.13-5.58 20.67t-19.02 7.54Zm-9.66-53.25h18.56v-7.85a58 58 0 0 0-.61-9.12 9.86 9.86 0 0 0-2.49-5.58c-1.26-1.26-3.24-1.89-6-1.89s-4.6.6-5.95 1.81-2.29 3.24-2.79 6.11a71.31 71.31 0 0 0-.76 11.84ZM566.9 560.33a14.69 14.69 0 0 1-9-2.94 20.79 20.79 0 0 1-6.18-7.55 21.72 21.72 0 0 1-2.26-9.73 31.18 31.18 0 0 1 2.71-13.72 27.34 27.34 0 0 1 7.47-9.43 51.28 51.28 0 0 1 11-6.71q6.25-2.87 13.2-5.59v-6.18a52.76 52.76 0 0 0-.6-8.75 9 9 0 0 0-2.49-5.2q-1.89-1.74-5.66-1.74a8.72 8.72 0 0 0-5.35 1.51 8.44 8.44 0 0 0-3 4.3 21.45 21.45 0 0 0-.9 6.56v4.38l-16-.61q.3-14.48 6.64-21.34t19.61-6.87q13 0 18.4 7.09t5.43 20.52v39.82c0 2.72.08 5.33.23 7.85s.35 4.85.6 7 .48 4.2.68 6.11h-14.76c-.31-1.61-.68-3.64-1.13-6.11s-.79-4.7-1-6.71a23.23 23.23 0 0 1-5.8 9.58q-4.3 4.47-11.84 4.46Zm6.34-13.88a8.2 8.2 0 0 0 4.53-1.36 20.65 20.65 0 0 0 3.77-3.09 16.47 16.47 0 0 0 2.26-2.79v-24.74c-2.51 1.41-4.88 2.82-7.09 4.22a39.4 39.4 0 0 0-5.81 4.45 18 18 0 0 0-3.92 5.28 15.08 15.08 0 0 0-1.43 6.72q0 5.28 2 8.29a6.38 6.38 0 0 0 5.69 3.02ZM635.69 560.33q-11 0-16.44-8.07t-5.43-27.38V508a96.57 96.57 0 0 1 1.66-18.48q1.65-8.52 6.26-13.65t13.5-5.13a16.58 16.58 0 0 1 8 2 27.91 27.91 0 0 1 6.49 4.83v-40.64h16.14v122.19h-16.15v-5.58a26 26 0 0 1-6.26 4.9 15.69 15.69 0 0 1-7.77 1.89Zm4.07-12.67a15.82 15.82 0 0 0 4.83-.83 21.59 21.59 0 0 0 5.13-2.49v-57.17a25.8 25.8 0 0 0-4.68-2.64 13.58 13.58 0 0 0-5.58-1.14q-5.58 0-7.54 5.36a37.57 37.57 0 0 0-2 12.9v24.59a80.44 80.44 0 0 0 .68 10.93 16.3 16.3 0 0 0 2.79 7.7 7.44 7.44 0 0 0 6.37 2.79Z"/><path d="M268.74 646.16v-29.41h-6v-2.31h14.76v2.31h-5.8v29.41ZM292 646.16v-31.72h3v14.06h10v-14.06h3v31.72h-3v-15.43h-10v15.43ZM324.43 646.16v-31.72h11.47v2.31h-8.46v11.9h6.9v2.2h-6.9v13.08H336v2.23ZM367.51 647.53v-2.23a12.62 12.62 0 0 0 2.6-.22 2.54 2.54 0 0 0 1.45-.8 3.42 3.42 0 0 0 .65-1.69 21.52 21.52 0 0 0 .15-2.82v-25.33h3v25.49a16.54 16.54 0 0 1-.47 4.31 4.05 4.05 0 0 1-1.84 2.49 8.29 8.29 0 0 1-4.07.8ZM390.1 646.16l6.7-31.72h3.13l6.74 31.72h-2.94l-1.56-8.5h-7.56l-1.61 8.5Zm4.9-10.65h6.73l-3.4-17.12ZM425.62 646.16l-7.44-31.72H421l6 26.27 5.63-26.27h2.82l-7.16 31.72ZM447 646.16l6.69-31.72h3.14l6.73 31.72h-2.96l-1.57-8.5h-7.56l-1.6 8.5Zm4.93-10.65h6.74l-3.41-17.12ZM485.07 646.55a7.83 7.83 0 0 1-4.28-1.08 6.65 6.65 0 0 1-2.57-3 13.71 13.71 0 0 1-1.06-4.53l2.63-.78a17.17 17.17 0 0 0 .7 3.55 5.3 5.3 0 0 0 1.61 2.5 4.49 4.49 0 0 0 3 .92 4.63 4.63 0 0 0 3.3-1.13 4.57 4.57 0 0 0 1.18-3.49 6.36 6.36 0 0 0-1-3.62 19 19 0 0 0-2.84-3.23l-5.6-5.37a10 10 0 0 1-2.19-3 8.1 8.1 0 0 1-.71-3.39 6.41 6.41 0 0 1 2-5.05 7.46 7.46 0 0 1 5.21-1.77 10.17 10.17 0 0 1 3 .43 5.66 5.66 0 0 1 2.31 1.39 6.54 6.54 0 0 1 1.51 2.49 14.87 14.87 0 0 1 .75 3.72l-2.55.67a14.17 14.17 0 0 0-.64-3.43 4.3 4.3 0 0 0-1.53-2.17 5.72 5.72 0 0 0-6.09.27 3.84 3.84 0 0 0-1.26 3.17 5.61 5.61 0 0 0 .49 2.35 7.84 7.84 0 0 0 1.75 2.27l5.6 5.29a20.66 20.66 0 0 1 3.25 3.92 8.85 8.85 0 0 1 1.37 4.85 8 8 0 0 1-.92 4 5.92 5.92 0 0 1-2.57 2.41 8.6 8.6 0 0 1-3.85.84ZM514.68 646.55a8 8 0 0 1-4.95-1.33 6.72 6.72 0 0 1-2.41-3.59 17.31 17.31 0 0 1-.67-5V624a17.54 17.54 0 0 1 .69-5.17 6.36 6.36 0 0 1 2.45-3.48 8.27 8.27 0 0 1 4.89-1.26 7.91 7.91 0 0 1 4.48 1.1 6 6 0 0 1 2.33 3.11 14.62 14.62 0 0 1 .71 4.8v1.92h-2.82v-1.84a16.65 16.65 0 0 0-.33-3.56 4.06 4.06 0 0 0-1.35-2.32 4.79 4.79 0 0 0-3-.82 5 5 0 0 0-3.19.88 4.39 4.39 0 0 0-1.45 2.49 16.48 16.48 0 0 0-.37 3.72v13.51a14.47 14.47 0 0 0 .45 3.92 4.19 4.19 0 0 0 1.54 2.35 5.13 5.13 0 0 0 3 .78 4.61 4.61 0 0 0 3-.86 4.28 4.28 0 0 0 1.35-2.41 17.52 17.52 0 0 0 .33-3.62v-2.08h2.82v1.88a17.24 17.24 0 0 1-.65 4.94 6.23 6.23 0 0 1-2.27 3.35 7.7 7.7 0 0 1-4.58 1.22ZM537.82 646.16v-31.72H545a9.55 9.55 0 0 1 4.68 1 5.46 5.46 0 0 1 2.45 2.78 11.29 11.29 0 0 1 .74 4.32 13.69 13.69 0 0 1-.39 3.33 6.34 6.34 0 0 1-1.33 2.67 4.65 4.65 0 0 1-2.66 1.45l4.85 16.21h-2.89l-4.66-15.59h-5v15.59Zm3-17.78h4a5.91 5.91 0 0 0 3.09-.67 3.68 3.68 0 0 0 1.57-2 9.69 9.69 0 0 0 .46-3.25 7.72 7.72 0 0 0-1-4.38c-.68-1-2-1.45-4-1.45h-4.14ZM568.92 646.16v-31.72h3v31.72ZM588.5 646.16v-31.72h7.6a8.2 8.2 0 0 1 4.48 1 5.87 5.87 0 0 1 2.33 2.94 12.59 12.59 0 0 1 .71 4.43 11.39 11.39 0 0 1-.73 4.13 6.28 6.28 0 0 1-2.39 3 7.57 7.57 0 0 1-4.36 1.14h-4.66v15Zm3-17.23h3.8a7.29 7.29 0 0 0 3.11-.57 3.43 3.43 0 0 0 1.74-1.9 9.59 9.59 0 0 0 .55-3.6 12.06 12.06 0 0 0-.47-3.78 3 3 0 0 0-1.62-1.88 8 8 0 0 0-3.28-.53h-3.83ZM622.3 646.16v-29.41h-6v-2.31h14.76v2.31h-5.8v29.41ZM671.25 646.55a7.89 7.89 0 0 1-4.29-1.08 6.69 6.69 0 0 1-2.56-3 13.46 13.46 0 0 1-1.06-4.53l2.62-.78a17.15 17.15 0 0 0 .71 3.55 5.29 5.29 0 0 0 1.6 2.5 4.52 4.52 0 0 0 3 .92 4 4 0 0 0 4.46-4.58 6.35 6.35 0 0 0-1-3.62 19.48 19.48 0 0 0-2.84-3.23l-5.6-5.37a10 10 0 0 1-2.2-3 8.1 8.1 0 0 1-.7-3.39 6.41 6.41 0 0 1 2-5.05 7.45 7.45 0 0 1 5.2-1.77 10.19 10.19 0 0 1 3 .43 5.66 5.66 0 0 1 2.31 1.39 6.67 6.67 0 0 1 1.51 2.49 15.37 15.37 0 0 1 .74 3.72l-2.54.67a14.14 14.14 0 0 0-.65-3.43 4.24 4.24 0 0 0-1.53-2.17 4.83 4.83 0 0 0-2.88-.75 4.94 4.94 0 0 0-3.21 1 3.87 3.87 0 0 0-1.25 3.17 5.46 5.46 0 0 0 .49 2.35 8 8 0 0 0 1.74 2.27l5.6 5.29a19.93 19.93 0 0 1 3.25 3.92 8.78 8.78 0 0 1 1.38 4.85 8 8 0 0 1-.92 4 5.92 5.92 0 0 1-2.57 2.41 8.63 8.63 0 0 1-3.81.82ZM693.49 646.16v-31.72h7.6a8.24 8.24 0 0 1 4.49 1 5.92 5.92 0 0 1 2.33 2.94 12.6 12.6 0 0 1 .7 4.43 11.6 11.6 0 0 1-.72 4.13 6.34 6.34 0 0 1-2.39 3 7.6 7.6 0 0 1-4.37 1.14h-4.66v15Zm3-17.23h3.8a7.23 7.23 0 0 0 3.11-.57 3.43 3.43 0 0 0 1.74-1.9 9.59 9.59 0 0 0 .55-3.6 11.77 11.77 0 0 0-.47-3.78 3 3 0 0 0-1.62-1.88 7.94 7.94 0 0 0-3.27-.53h-3.84ZM723.38 646.16v-31.72h7.16a9.55 9.55 0 0 1 4.68 1 5.46 5.46 0 0 1 2.45 2.78 11.48 11.48 0 0 1 .74 4.32 13.69 13.69 0 0 1-.39 3.33 6.34 6.34 0 0 1-1.33 2.67A4.62 4.62 0 0 1 734 630l4.85 16.21H736l-4.66-15.59h-5v15.59Zm3-17.78h4a5.92 5.92 0 0 0 3.1-.67 3.62 3.62 0 0 0 1.56-2 9.41 9.41 0 0 0 .48-3.25 7.64 7.64 0 0 0-1-4.38c-.68-1-2-1.45-4-1.45h-4.11ZM754.35 646.16v-31.72h11.48v2.31h-8.46v11.9h6.89v2.2h-6.89v13.08h8.53v2.23ZM779.22 646.16l6.7-31.72h3.13l6.74 31.72h-2.94l-1.57-8.5h-7.56l-1.6 8.5Zm4.93-10.65h6.74l-3.41-17.12ZM810.59 646.16v-31.72h6.89a9.84 9.84 0 0 1 5.19 1.15 6.17 6.17 0 0 1 2.62 3.27 14.36 14.36 0 0 1 .77 4.9v12.61a15.77 15.77 0 0 1-.77 5.15 6.54 6.54 0 0 1-2.56 3.42 8.8 8.8 0 0 1-5 1.22Zm3-2.23h4a5.46 5.46 0 0 0 3.68-1 4.73 4.73 0 0 0 1.49-2.86 24.39 24.39 0 0 0 .31-4.13v-11.87a16.32 16.32 0 0 0-.41-4 4.11 4.11 0 0 0-1.6-2.47 6.26 6.26 0 0 0-3.59-.84h-3.87ZM848.7 646.55a7.85 7.85 0 0 1-4.29-1.08 6.71 6.71 0 0 1-2.57-3 13.71 13.71 0 0 1-1.06-4.53l2.63-.78a17.17 17.17 0 0 0 .7 3.55 5.3 5.3 0 0 0 1.61 2.5 4.51 4.51 0 0 0 3 .92A4.63 4.63 0 0 0 852 643a4.57 4.57 0 0 0 1.18-3.49 6.36 6.36 0 0 0-1-3.62 19 19 0 0 0-2.84-3.23l-5.6-5.37a10 10 0 0 1-2.19-3 8.1 8.1 0 0 1-.71-3.39 6.41 6.41 0 0 1 2-5.05 7.48 7.48 0 0 1 5.21-1.77 10.29 10.29 0 0 1 3 .43 5.66 5.66 0 0 1 2.31 1.39 6.66 6.66 0 0 1 1.5 2.49 14.87 14.87 0 0 1 .75 3.72l-2.55.67a14.17 14.17 0 0 0-.64-3.43 4.3 4.3 0 0 0-1.53-2.17 4.83 4.83 0 0 0-2.88-.75 4.9 4.9 0 0 0-3.21 1 3.84 3.84 0 0 0-1.25 3.17 5.46 5.46 0 0 0 .45 2.4 7.61 7.61 0 0 0 1.74 2.27l5.6 5.29a20.66 20.66 0 0 1 3.25 3.92 8.85 8.85 0 0 1 1.37 4.85 8 8 0 0 1-.92 4 5.87 5.87 0 0 1-2.57 2.41 8.59 8.59 0 0 1-3.77.81ZM870.9 646.16v-31.72h3v14.06h10v-14.06h3v31.72h-3v-15.43h-10v15.43ZM903.37 646.16v-31.72h11.47v2.31h-8.46v11.9h6.89v2.2h-6.89v13.08h8.54v2.23ZM929.92 646.16v-31.72h11.47v2.31h-8.46v11.9h6.9v2.2h-6.9v13.08h8.54v2.23ZM960.43 646.16v-29.41h-6v-2.31h14.77v2.31h-5.8v29.41Z"/><path class="cls-2" d="M701.32 560.33q-10.73 0-17.2-6.71t-7.39-17.73l13.42-4.07c.81 5.53 2.16 9.68 4.08 12.44a9.57 9.57 0 0 0 8.44 4.15q4.38 0 6.64-2.49a9.58 9.58 0 0 0 2.26-6.71 13.82 13.82 0 0 0-1.66-6.79 22.54 22.54 0 0 0-5.43-6.18l-14.93-12.83a40.11 40.11 0 0 1-7.62-8.75q-3.09-4.82-3.09-12.52a22.76 22.76 0 0 1 2.79-11.69 18.19 18.19 0 0 1 7.84-7.24 26.52 26.52 0 0 1 11.85-2.49q10.41 0 15.91 6.72a28.41 28.41 0 0 1 6.26 16.21l-10.86 4.08a39.3 39.3 0 0 0-1.81-7.92 12.48 12.48 0 0 0-3.32-5.28 8.06 8.06 0 0 0-5.58-1.89 7.94 7.94 0 0 0-6.26 2.64 9.13 9.13 0 0 0-2.34 6.26 10.84 10.84 0 0 0 1 4.45 13 13 0 0 0 3.4 4.3l15.38 14.18a62.22 62.22 0 0 1 6 6.18 29.91 29.91 0 0 1 4.6 7.55 24.62 24.62 0 0 1 1.81 9.8 23.5 23.5 0 0 1-3 12.37 18.84 18.84 0 0 1-8.45 7.47 30.15 30.15 0 0 1-12.74 2.49ZM738 559.12V436.93h16.14V481a47 47 0 0 1 9.81-7.24 24.43 24.43 0 0 1 12.07-3q5.12 0 7.92 2.72a14.81 14.81 0 0 1 3.92 6.79 31 31 0 0 1 1.13 8.29v70.6h-16.17V493.2a15.65 15.65 0 0 0-1.36-7.24c-.9-1.71-2.77-2.57-5.58-2.57a12.67 12.67 0 0 0-6 1.66 30.49 30.49 0 0 0-5.81 4.08v70ZM828.78 560.33q-10.26 0-15.84-4t-7.76-11.77a71.26 71.26 0 0 1-2.18-19.08v-19.91q0-11.61 2.26-19.31a20.67 20.67 0 0 1 7.92-11.62q5.66-3.92 15.61-3.92 11 0 16.22 4.53t6.86 13.05a108.22 108.22 0 0 1 1.66 20.44v7.09h-34.4v17.5a31.17 31.17 0 0 0 1 8.59 8.9 8.9 0 0 0 3.17 4.91 9.42 9.42 0 0 0 5.65 1.58 7.9 7.9 0 0 0 5.51-1.73 9.06 9.06 0 0 0 2.56-5 37 37 0 0 0 .68-7.62v-5.26h15.69v3.32q0 13.13-5.58 20.67t-19.03 7.54Zm-9.65-53.25h18.55v-7.85a58.17 58.17 0 0 0-.6-9.12 9.86 9.86 0 0 0-2.49-5.58c-1.26-1.26-3.24-1.89-6-1.89a8.71 8.71 0 0 0-6 1.81c-1.35 1.21-2.29 3.24-2.79 6.11a72.61 72.61 0 0 0-.75 11.84ZM892.29 560.33q-10.26 0-15.84-4t-7.77-11.77a71.26 71.26 0 0 1-2.19-19.08v-19.91q0-11.61 2.27-19.31a20.62 20.62 0 0 1 7.92-11.62q5.66-3.92 15.61-3.92 11 0 16.22 4.53t6.86 13.05a109.06 109.06 0 0 1 1.63 20.44v7.09h-34.4v17.5a30.74 30.74 0 0 0 1 8.59 8.89 8.89 0 0 0 3.16 4.91 9.45 9.45 0 0 0 5.66 1.58 7.91 7.91 0 0 0 5.51-1.73 9.12 9.12 0 0 0 2.56-5 37.74 37.74 0 0 0 .68-7.62v-5.26h15.69v3.32q0 13.13-5.58 20.67t-18.99 7.54Zm-9.66-53.25h18.56v-7.85a58.17 58.17 0 0 0-.6-9.12 10 10 0 0 0-2.49-5.58q-1.89-1.89-6-1.89c-2.62 0-4.6.6-6 1.81s-2.29 3.24-2.79 6.11a71.31 71.31 0 0 0-.76 11.84ZM954.89 560.33q-6.78 0-10.93-2.57a14.75 14.75 0 0 1-6-7.24 29.27 29.27 0 0 1-1.88-11v-56.88h-9.21v-10.71H936v-25.49h16.14v25.49h14v10.71h-14v55.81c0 3.43.55 5.86 1.66 7.32s3.21 2.19 6.33 2.19c.8 0 1.74-.05 2.79-.15l3.09-.3v11.91q-3 .45-5.58.68c-1.67.15-3.53.23-5.54.23Z"/><path class="cls-3" d="M99.09 467.24v88.81l97.75 90.29v-88.81l-97.75-90.29z"/><path class="cls-3" d="M114.33 452v88.82l97.74 90.29v-88.82L114.33 452z"/><path class="cls-3" d="M129.56 436.77v88.81l97.74 90.3v-88.82l-97.74-90.29z"/></g></svg>