<?xml version="1.0" encoding="UTF-8"?>
<!-- Generator: Adobe Illustrator 26.0.2, SVG Export Plug-In . SVG Version: 6.00 Build 0)  -->
<svg version="1.1" id="Camada_1" xmlns="http://www.w3.org/2000/svg" xmlns:xlink="http://www.w3.org/1999/xlink" x="0px" y="0px" viewBox="0 0 873 212" style="enable-background:new 0 0 873 212;" xml:space="preserve">
<style type="text/css">
	.st0{fill:#1D1D1B;}
	.st1{fill:#c82b35;}
	.st2{opacity:0.7;fill:#D50000;}
</style>
<g>
	<g>
		<g>
			<g>
				<g>
					<path class="st0" d="M165.09,125.99v-12.22c3.72,0,6.74-0.25,9.05-0.75c2.31-0.5,4.1-1.41,5.35-2.71       c1.26-1.31,2.14-3.19,2.64-5.66c0.5-2.46,0.75-5.6,0.75-9.43V0.93h16.9v94.58c0,7.04-0.75,12.8-2.26,17.27       c-1.51,4.48-4.17,7.79-8,9.96c-3.82,2.16-9.25,3.24-16.29,3.24H165.09z"/>
					<path class="st0" d="M237.8,124.33c-7.14,0-12.88-2.24-17.2-6.71c-4.33-4.47-6.79-10.38-7.39-17.73l13.43-4.07       c0.8,5.53,2.16,9.68,4.07,12.45c1.91,2.77,4.73,4.15,8.45,4.15c2.92,0,5.13-0.83,6.64-2.49c1.51-1.66,2.26-3.9,2.26-6.71       c0-2.51-0.55-4.78-1.66-6.79c-1.11-2.01-2.92-4.07-5.43-6.19l-14.93-12.82c-3.02-2.61-5.56-5.53-7.62-8.75       c-2.06-3.22-3.09-7.39-3.09-12.52c0-4.62,0.93-8.52,2.79-11.69c1.86-3.17,4.47-5.58,7.84-7.24c3.37-1.66,7.32-2.49,11.84-2.49       c6.94,0,12.24,2.24,15.91,6.71c3.67,4.48,5.76,9.88,6.26,16.22l-10.86,4.07c-0.4-3.02-1.01-5.66-1.81-7.92       c-0.81-2.26-1.91-4.02-3.32-5.28c-1.41-1.26-3.27-1.89-5.58-1.89c-2.62,0-4.7,0.88-6.26,2.64c-1.56,1.76-2.34,3.85-2.34,6.26       c0,1.51,0.33,2.99,0.98,4.45c0.65,1.46,1.78,2.89,3.39,4.3l15.39,14.18c2.11,1.91,4.1,3.97,5.96,6.18       c1.86,2.21,3.39,4.73,4.6,7.54c1.21,2.82,1.81,6.09,1.81,9.81c0,4.93-1.01,9.05-3.02,12.37c-2.01,3.32-4.83,5.81-8.45,7.47       S242.63,124.33,237.8,124.33z"/>
					<path class="st0" d="M274.01,151.78V35.93h16.14v6.94c1.91-2.21,4.22-4.12,6.94-5.73c2.71-1.61,5.93-2.41,9.65-2.41       c4.53,0,8.12,1.18,10.79,3.54c2.66,2.36,4.65,5.33,5.96,8.9c1.31,3.57,2.16,7.19,2.56,10.86c0.4,3.67,0.6,6.81,0.6,9.43v21.12       c0,6.14-0.6,11.94-1.81,17.42c-1.21,5.48-3.39,9.91-6.56,13.27c-3.17,3.37-7.62,5.05-13.35,5.05c-3.12,0-5.88-0.78-8.3-2.34       c-2.41-1.56-4.58-3.34-6.49-5.35v35.15H274.01z M301.76,111.66c2.81,0,4.83-1.03,6.03-3.09c1.21-2.06,1.96-4.85,2.26-8.37       c0.3-3.52,0.45-7.39,0.45-11.62V67.46c0-3.62-0.2-6.96-0.6-10.03c-0.4-3.07-1.26-5.51-2.56-7.32       c-1.31-1.81-3.37-2.72-6.19-2.72c-2.11,0-4.12,0.45-6.03,1.36c-1.91,0.9-3.57,1.96-4.98,3.17v55.81       c1.51,1.11,3.22,2.04,5.13,2.79C297.19,111.28,299.35,111.66,301.76,111.66z"/>
					<path class="st0" d="M341.74,123.12V35.93h16.14V48.3c3.22-5.33,6.43-8.9,9.65-10.71c3.22-1.81,6.44-2.72,9.66-2.72       c0.4,0,0.78,0,1.13,0c0.35,0,0.83,0.05,1.43,0.15v17.8c-1.21-0.5-2.59-0.93-4.15-1.28c-1.56-0.35-3.14-0.53-4.75-0.53       c-2.52,0-4.8,0.58-6.86,1.73c-2.06,1.16-4.1,3.39-6.11,6.71v63.66H341.74z"/>
					<path class="st0" d="M413.85,124.33c-6.84,0-12.12-1.33-15.84-4c-3.72-2.66-6.31-6.58-7.77-11.77       c-1.46-5.18-2.19-11.54-2.19-19.08V69.57c0-7.74,0.75-14.18,2.26-19.31c1.51-5.13,4.15-9,7.92-11.62       c3.77-2.61,8.98-3.92,15.61-3.92c7.34,0,12.75,1.51,16.22,4.53c3.47,3.02,5.76,7.37,6.86,13.05c1.11,5.68,1.66,12.5,1.66,20.44       v7.09h-34.39v17.5c0,3.52,0.33,6.39,0.98,8.6c0.65,2.21,1.71,3.85,3.17,4.9c1.46,1.06,3.34,1.58,5.66,1.58       c2.41,0,4.25-0.58,5.51-1.74c1.26-1.16,2.11-2.81,2.56-4.98c0.45-2.16,0.68-4.7,0.68-7.62V92.8h15.69v3.32       c0,8.75-1.86,15.64-5.58,20.67C429.13,121.82,422.79,124.33,413.85,124.33z M404.19,71.08h18.55v-7.84       c0-3.62-0.2-6.66-0.6-9.13c-0.4-2.46-1.23-4.32-2.49-5.58c-1.26-1.26-3.24-1.89-5.96-1.89c-2.62,0-4.6,0.6-5.96,1.81       c-1.36,1.21-2.29,3.24-2.79,6.11c-0.5,2.87-0.75,6.81-0.75,11.84V71.08z"/>
					<path class="st0" d="M468.9,124.33c-3.42,0-6.44-0.98-9.05-2.94c-2.62-1.96-4.68-4.47-6.19-7.54       c-1.51-3.07-2.26-6.31-2.26-9.73c0-5.43,0.9-10.01,2.71-13.73c1.81-3.72,4.3-6.86,7.47-9.43s6.84-4.8,11.01-6.71       c4.17-1.91,8.57-3.77,13.2-5.58v-6.19c0-3.52-0.2-6.43-0.6-8.75c-0.4-2.31-1.23-4.05-2.49-5.2c-1.26-1.15-3.14-1.73-5.66-1.73       c-2.21,0-4,0.5-5.36,1.51c-1.36,1.01-2.34,2.44-2.94,4.3c-0.6,1.86-0.91,4.05-0.91,6.56v4.37l-15.99-0.6       c0.2-9.65,2.41-16.77,6.64-21.35c4.22-4.58,10.76-6.86,19.61-6.86c8.65,0,14.78,2.36,18.4,7.09       c3.62,4.73,5.43,11.57,5.43,20.52v39.83c0,2.71,0.07,5.33,0.22,7.84c0.15,2.51,0.35,4.85,0.6,7.01       c0.25,2.16,0.48,4.2,0.68,6.11h-14.78c-0.3-1.61-0.68-3.64-1.13-6.11c-0.45-2.46-0.78-4.7-0.98-6.71       c-1.01,3.42-2.94,6.61-5.81,9.58C477.88,122.85,473.93,124.33,468.9,124.33z M475.24,110.45c1.61,0,3.12-0.45,4.53-1.36       c1.41-0.91,2.66-1.93,3.77-3.09c1.11-1.16,1.86-2.09,2.26-2.79V78.47c-2.51,1.41-4.88,2.82-7.09,4.22       c-2.21,1.41-4.15,2.89-5.81,4.45c-1.66,1.56-2.97,3.32-3.92,5.28c-0.96,1.96-1.43,4.2-1.43,6.71c0,3.52,0.65,6.29,1.96,8.3       C470.81,109.45,472.72,110.45,475.24,110.45z"/>
					<path class="st0" d="M537.69,124.33c-7.34,0-12.82-2.69-16.44-8.07c-3.62-5.38-5.43-14.51-5.43-27.38v-16.9       c0-6.64,0.55-12.8,1.66-18.48c1.11-5.68,3.19-10.23,6.26-13.65c3.07-3.42,7.57-5.13,13.5-5.13c2.92,0,5.58,0.66,8,1.96       c2.41,1.31,4.57,2.92,6.49,4.83V0.93h16.14v122.19h-16.14v-5.58c-1.91,2.01-4,3.65-6.26,4.9       C543.2,123.7,540.61,124.33,537.69,124.33z M541.76,111.66c1.51,0,3.12-0.28,4.83-0.83c1.71-0.55,3.42-1.38,5.13-2.49V51.17       c-1.41-1-2.97-1.89-4.68-2.64c-1.71-0.75-3.57-1.13-5.58-1.13c-3.72,0-6.24,1.79-7.54,5.35c-1.31,3.57-1.96,7.87-1.96,12.9       v24.59c0,4.02,0.23,7.67,0.68,10.94c0.45,3.27,1.38,5.83,2.79,7.69C536.84,110.73,538.95,111.66,541.76,111.66z"/>
				</g>
			</g>
			<g>
				<g>
					<path d="M170.74,210.16v-29.41h-5.99v-2.31h14.76v2.31h-5.8v29.41H170.74z"/>
					<path d="M193.96,210.16v-31.72h3.02v14.06h9.99v-14.06h2.98v31.72h-2.98v-15.43h-9.99v15.43H193.96z"/>
					<path d="M226.43,210.16v-31.72h11.47v2.31h-8.46v11.91h6.89v2.19h-6.89v13.08h8.54v2.23H226.43z"/>
					<path d="M269.51,211.53v-2.23c1.1,0,1.96-0.07,2.6-0.22c0.64-0.14,1.12-0.41,1.45-0.8s0.54-0.95,0.65-1.68       c0.1-0.73,0.16-1.67,0.16-2.82v-25.34h2.98v25.5c0,1.75-0.16,3.19-0.47,4.31c-0.31,1.12-0.93,1.95-1.84,2.49       s-2.27,0.8-4.07,0.8H269.51z"/>
					<path d="M292.1,210.16l6.7-31.72h3.13l6.74,31.72h-2.94l-1.57-8.5h-7.56l-1.61,8.5H292.1z M297.04,199.51h6.74l-3.41-17.11       L297.04,199.51z"/>
					<path d="M329.07,210.16l-7.44-31.72h2.86l5.99,26.28l5.64-26.28h2.82l-7.17,31.72H329.07z"/>
					<path d="M351.87,210.16l6.7-31.72h3.13l6.74,31.72h-2.94l-1.57-8.5h-7.56l-1.61,8.5H351.87z M356.8,199.51h6.74l-3.41-17.11       L356.8,199.51z"/>
					<path d="M389.97,210.55c-1.72,0-3.15-0.36-4.29-1.08s-1.99-1.72-2.57-3.02c-0.57-1.29-0.93-2.8-1.06-4.52l2.62-0.78       c0.13,1.31,0.37,2.49,0.71,3.54c0.34,1.06,0.87,1.89,1.61,2.51c0.73,0.61,1.74,0.92,3.02,0.92c1.41,0,2.51-0.37,3.29-1.1       c0.78-0.73,1.17-1.89,1.17-3.49c0-1.38-0.35-2.59-1.04-3.62c-0.69-1.03-1.64-2.11-2.84-3.23l-5.6-5.37       c-0.99-0.97-1.72-1.96-2.19-3s-0.71-2.16-0.71-3.39c0-2.19,0.65-3.88,1.96-5.05s3.04-1.76,5.21-1.76       c1.12,0,2.13,0.14,3.04,0.43c0.9,0.29,1.67,0.75,2.31,1.39s1.14,1.47,1.51,2.49c0.37,1.02,0.61,2.26,0.74,3.72l-2.55,0.67       c-0.1-1.33-0.32-2.47-0.65-3.43c-0.33-0.95-0.84-1.68-1.53-2.17c-0.69-0.5-1.65-0.74-2.88-0.74c-1.31,0-2.38,0.34-3.21,1.02       c-0.84,0.68-1.25,1.74-1.25,3.17c0,0.86,0.16,1.64,0.49,2.35c0.33,0.71,0.91,1.46,1.74,2.27l5.6,5.29       c1.25,1.17,2.34,2.48,3.25,3.92c0.91,1.44,1.37,3.05,1.37,4.86c0,1.59-0.31,2.92-0.92,4c-0.61,1.07-1.47,1.87-2.57,2.41       S391.41,210.55,389.97,210.55z"/>
					<path d="M419.58,210.55c-2.14,0-3.79-0.44-4.95-1.33c-1.16-0.89-1.96-2.08-2.41-3.58c-0.44-1.5-0.67-3.17-0.67-4.99v-12.61       c0-1.96,0.23-3.68,0.68-5.17c0.46-1.49,1.27-2.65,2.45-3.49c1.17-0.83,2.81-1.25,4.9-1.25c1.91,0,3.4,0.37,4.48,1.1       c1.08,0.73,1.86,1.77,2.33,3.11c0.47,1.34,0.71,2.94,0.71,4.8v1.92h-2.82v-1.84c0-1.38-0.11-2.57-0.33-3.56       s-0.67-1.76-1.35-2.31c-0.68-0.55-1.68-0.82-3.01-0.82c-1.41,0-2.47,0.29-3.19,0.88c-0.72,0.59-1.2,1.42-1.45,2.49       c-0.25,1.07-0.37,2.31-0.37,3.72v13.51c0,1.57,0.15,2.87,0.45,3.92c0.3,1.04,0.82,1.83,1.55,2.35       c0.73,0.52,1.74,0.78,3.02,0.78c1.33,0,2.34-0.29,3.01-0.86s1.13-1.38,1.35-2.41c0.22-1.03,0.33-2.24,0.33-3.62v-2.08h2.82       v1.88c0,1.85-0.21,3.5-0.65,4.93c-0.43,1.44-1.19,2.55-2.27,3.35C423.1,210.15,421.56,210.55,419.58,210.55z"/>
					<path d="M442.72,210.16v-31.72h7.17c1.98,0,3.54,0.32,4.68,0.96c1.13,0.64,1.95,1.57,2.45,2.78c0.5,1.21,0.74,2.66,0.74,4.33       c0,1.17-0.13,2.29-0.39,3.33c-0.26,1.04-0.71,1.93-1.33,2.66s-1.52,1.21-2.66,1.45l4.86,16.21h-2.9l-4.66-15.59h-4.97v15.59       H442.72z M445.7,192.38h4.04c1.33,0,2.36-0.22,3.09-0.67c0.73-0.44,1.25-1.1,1.57-1.96c0.31-0.86,0.47-1.95,0.47-3.25       c0-1.96-0.34-3.42-1.02-4.39c-0.68-0.97-2.02-1.45-4.03-1.45h-4.11V192.38z"/>
					<path d="M473.82,210.16v-31.72h2.98v31.72H473.82z"/>
					<path d="M493.4,210.16v-31.72h7.6c1.91,0,3.4,0.35,4.48,1.06c1.08,0.7,1.86,1.68,2.33,2.94c0.47,1.25,0.71,2.73,0.71,4.43       c0,1.49-0.24,2.87-0.72,4.13s-1.28,2.28-2.39,3.04s-2.56,1.14-4.37,1.14h-4.66v15H493.4z M496.37,192.93h3.8       c1.28,0,2.32-0.19,3.11-0.57c0.8-0.38,1.38-1.01,1.74-1.9c0.37-0.89,0.55-2.09,0.55-3.6c0-1.62-0.16-2.88-0.47-3.78       c-0.31-0.9-0.86-1.53-1.62-1.88c-0.77-0.35-1.86-0.53-3.27-0.53h-3.84V192.93z"/>
					<path d="M527.2,210.16v-29.41h-5.99v-2.31h14.76v2.31h-5.8v29.41H527.2z"/>
					<path d="M576.15,210.55c-1.72,0-3.15-0.36-4.29-1.08c-1.14-0.72-1.99-1.72-2.57-3.02c-0.57-1.29-0.93-2.8-1.06-4.52l2.62-0.78       c0.13,1.31,0.37,2.49,0.71,3.54c0.34,1.06,0.88,1.89,1.61,2.51c0.73,0.61,1.74,0.92,3.02,0.92c1.41,0,2.51-0.37,3.29-1.1       c0.78-0.73,1.17-1.89,1.17-3.49c0-1.38-0.35-2.59-1.04-3.62c-0.69-1.03-1.64-2.11-2.84-3.23l-5.6-5.37       c-0.99-0.97-1.72-1.96-2.19-3c-0.47-1.03-0.71-2.16-0.71-3.39c0-2.19,0.65-3.88,1.96-5.05c1.31-1.17,3.04-1.76,5.21-1.76       c1.12,0,2.13,0.14,3.04,0.43c0.9,0.29,1.67,0.75,2.31,1.39c0.64,0.64,1.14,1.47,1.51,2.49c0.37,1.02,0.61,2.26,0.74,3.72       l-2.54,0.67c-0.11-1.33-0.32-2.47-0.65-3.43s-0.84-1.68-1.53-2.17c-0.69-0.5-1.65-0.74-2.88-0.74c-1.3,0-2.38,0.34-3.21,1.02       s-1.25,1.74-1.25,3.17c0,0.86,0.16,1.64,0.49,2.35s0.91,1.46,1.74,2.27l5.6,5.29c1.25,1.17,2.34,2.48,3.25,3.92       c0.91,1.44,1.37,3.05,1.37,4.86c0,1.59-0.31,2.92-0.92,4c-0.62,1.07-1.47,1.87-2.57,2.41       C578.85,210.28,577.58,210.55,576.15,210.55z"/>
					<path d="M598.39,210.16v-31.72h7.6c1.91,0,3.4,0.35,4.48,1.06c1.08,0.7,1.86,1.68,2.33,2.94c0.47,1.25,0.71,2.73,0.71,4.43       c0,1.49-0.24,2.87-0.72,4.13s-1.28,2.28-2.39,3.04s-2.56,1.14-4.37,1.14h-4.66v15H598.39z M601.37,192.93h3.8       c1.28,0,2.32-0.19,3.11-0.57c0.8-0.38,1.38-1.01,1.74-1.9c0.37-0.89,0.55-2.09,0.55-3.6c0-1.62-0.16-2.88-0.47-3.78       c-0.31-0.9-0.86-1.53-1.62-1.88c-0.77-0.35-1.86-0.53-3.27-0.53h-3.84V192.93z"/>
					<path d="M628.27,210.16v-31.72h7.17c1.98,0,3.54,0.32,4.68,0.96c1.13,0.64,1.95,1.57,2.45,2.78c0.5,1.21,0.74,2.66,0.74,4.33       c0,1.17-0.13,2.29-0.39,3.33c-0.26,1.04-0.71,1.93-1.33,2.66s-1.52,1.21-2.66,1.45l4.86,16.21h-2.9l-4.66-15.59h-4.97v15.59       H628.27z M631.25,192.38h4.04c1.33,0,2.36-0.22,3.09-0.67c0.73-0.44,1.25-1.1,1.57-1.96c0.31-0.86,0.47-1.95,0.47-3.25       c0-1.96-0.34-3.42-1.02-4.39c-0.68-0.97-2.02-1.45-4.03-1.45h-4.11V192.38z"/>
					<path d="M659.25,210.16v-31.72h11.47v2.31h-8.46v11.91h6.89v2.19h-6.89v13.08h8.54v2.23H659.25z"/>
					<path d="M684.12,210.16l6.7-31.72h3.13l6.74,31.72h-2.94l-1.57-8.5h-7.56l-1.61,8.5H684.12z M689.05,199.51h6.73l-3.41-17.11       L689.05,199.51z"/>
					<path d="M715.49,210.16v-31.72h6.89c2.22,0,3.95,0.39,5.19,1.16c1.24,0.77,2.11,1.86,2.62,3.27c0.51,1.41,0.76,3.04,0.76,4.9       v12.61c0,1.96-0.25,3.68-0.76,5.15c-0.51,1.48-1.36,2.62-2.56,3.43s-2.86,1.21-4.97,1.21H715.49z M718.46,207.93h3.99       c1.67,0,2.9-0.35,3.68-1.04c0.78-0.69,1.28-1.64,1.49-2.86s0.31-2.59,0.31-4.13v-11.83c0-1.59-0.14-2.93-0.41-4.01       c-0.28-1.08-0.81-1.91-1.61-2.47c-0.8-0.56-1.99-0.84-3.58-0.84h-3.88V207.93z"/>
					<path d="M753.59,210.55c-1.72,0-3.15-0.36-4.29-1.08c-1.13-0.72-1.99-1.72-2.56-3.02c-0.57-1.29-0.93-2.8-1.06-4.52l2.62-0.78       c0.13,1.31,0.37,2.49,0.71,3.54c0.34,1.06,0.87,1.89,1.61,2.51c0.73,0.61,1.74,0.92,3.02,0.92c1.41,0,2.51-0.37,3.29-1.1       c0.78-0.73,1.18-1.89,1.18-3.49c0-1.38-0.35-2.59-1.04-3.62c-0.69-1.03-1.64-2.11-2.84-3.23l-5.6-5.37       c-0.99-0.97-1.72-1.96-2.19-3c-0.47-1.03-0.71-2.16-0.71-3.39c0-2.19,0.65-3.88,1.96-5.05c1.3-1.17,3.04-1.76,5.21-1.76       c1.12,0,2.13,0.14,3.04,0.43c0.9,0.29,1.67,0.75,2.31,1.39c0.64,0.64,1.14,1.47,1.51,2.49c0.37,1.02,0.61,2.26,0.74,3.72       l-2.55,0.67c-0.1-1.33-0.32-2.47-0.64-3.43c-0.33-0.95-0.84-1.68-1.53-2.17c-0.69-0.5-1.65-0.74-2.88-0.74       c-1.31,0-2.38,0.34-3.21,1.02c-0.84,0.68-1.25,1.74-1.25,3.17c0,0.86,0.16,1.64,0.49,2.35c0.33,0.71,0.91,1.46,1.74,2.27       l5.6,5.29c1.25,1.17,2.34,2.48,3.25,3.92c0.91,1.44,1.37,3.05,1.37,4.86c0,1.59-0.31,2.92-0.92,4s-1.47,1.87-2.56,2.41       C756.29,210.28,755.03,210.55,753.59,210.55z"/>
					<path d="M775.8,210.16v-31.72h3.02v14.06h9.99v-14.06h2.98v31.72h-2.98v-15.43h-9.99v15.43H775.8z"/>
					<path d="M808.26,210.16v-31.72h11.47v2.31h-8.46v11.91h6.89v2.19h-6.89v13.08h8.54v2.23H808.26z"/>
					<path d="M834.81,210.16v-31.72h11.47v2.31h-8.46v11.91h6.89v2.19h-6.89v13.08h8.54v2.23H834.81z"/>
					<path d="M865.32,210.16v-29.41h-5.99v-2.31h14.77v2.31h-5.8v29.41H865.32z"/>
				</g>
			</g>
			<g>
				<g>
					<path class="st1" d="M603.32,124.33c-7.14,0-12.88-2.24-17.2-6.71c-4.32-4.47-6.79-10.38-7.39-17.73l13.43-4.07       c0.8,5.53,2.16,9.68,4.07,12.45c1.91,2.77,4.73,4.15,8.45,4.15c2.92,0,5.13-0.83,6.64-2.49c1.51-1.66,2.26-3.9,2.26-6.71       c0-2.51-0.55-4.78-1.66-6.79c-1.11-2.01-2.92-4.07-5.43-6.19l-14.93-12.82c-3.02-2.61-5.56-5.53-7.62-8.75       c-2.06-3.22-3.09-7.39-3.09-12.52c0-4.62,0.93-8.52,2.79-11.69c1.86-3.17,4.47-5.58,7.84-7.24c3.37-1.66,7.32-2.49,11.84-2.49       c6.94,0,12.24,2.24,15.91,6.71c3.67,4.48,5.76,9.88,6.26,16.22l-10.86,4.07c-0.4-3.02-1.01-5.66-1.81-7.92       c-0.81-2.26-1.91-4.02-3.32-5.28c-1.41-1.26-3.27-1.89-5.58-1.89c-2.62,0-4.7,0.88-6.26,2.64c-1.56,1.76-2.34,3.85-2.34,6.26       c0,1.51,0.32,2.99,0.98,4.45c0.65,1.46,1.78,2.89,3.39,4.3l15.39,14.18c2.11,1.91,4.1,3.97,5.96,6.18       c1.86,2.21,3.39,4.73,4.6,7.54c1.21,2.82,1.81,6.09,1.81,9.81c0,4.93-1.01,9.05-3.02,12.37c-2.01,3.32-4.83,5.81-8.45,7.47       C612.37,123.5,608.14,124.33,603.32,124.33z"/>
					<path class="st1" d="M639.97,123.12V0.93h16.14v44.05c2.92-2.81,6.19-5.23,9.8-7.24c3.62-2.01,7.64-3.02,12.07-3.02       c3.42,0,6.06,0.91,7.92,2.72c1.86,1.81,3.17,4.07,3.92,6.79s1.13,5.48,1.13,8.3v70.6h-16.14V57.2c0-3.12-0.45-5.53-1.36-7.24       c-0.9-1.71-2.77-2.56-5.58-2.56c-1.91,0-3.9,0.55-5.96,1.66c-2.06,1.11-4,2.47-5.81,4.07v69.99H639.97z"/>
					<path class="st1" d="M730.78,124.33c-6.84,0-12.12-1.33-15.84-4c-3.72-2.66-6.31-6.58-7.77-11.77       c-1.46-5.18-2.19-11.54-2.19-19.08V69.57c0-7.74,0.75-14.18,2.26-19.31c1.51-5.13,4.15-9,7.92-11.62       c3.77-2.61,8.98-3.92,15.61-3.92c7.34,0,12.75,1.51,16.22,4.53s5.76,7.37,6.86,13.05c1.11,5.68,1.66,12.5,1.66,20.44v7.09       h-34.39v17.5c0,3.52,0.33,6.39,0.98,8.6c0.65,2.21,1.71,3.85,3.17,4.9c1.46,1.06,3.34,1.58,5.66,1.58       c2.41,0,4.25-0.58,5.51-1.74c1.26-1.16,2.11-2.81,2.56-4.98c0.45-2.16,0.68-4.7,0.68-7.62V92.8h15.69v3.32       c0,8.75-1.86,15.64-5.58,20.67C746.07,121.82,739.73,124.33,730.78,124.33z M721.13,71.08h18.55v-7.84       c0-3.62-0.2-6.66-0.6-9.13c-0.4-2.46-1.23-4.32-2.49-5.58c-1.26-1.26-3.24-1.89-5.96-1.89c-2.62,0-4.6,0.6-5.96,1.81       c-1.36,1.21-2.29,3.24-2.79,6.11c-0.5,2.87-0.75,6.81-0.75,11.84V71.08z"/>
					<path class="st1" d="M794.29,124.33c-6.84,0-12.12-1.33-15.84-4c-3.72-2.66-6.31-6.58-7.77-11.77       c-1.46-5.18-2.19-11.54-2.19-19.08V69.57c0-7.74,0.75-14.18,2.26-19.31c1.51-5.13,4.15-9,7.92-11.62       c3.77-2.61,8.98-3.92,15.61-3.92c7.34,0,12.75,1.51,16.22,4.53s5.76,7.37,6.86,13.05c1.11,5.68,1.66,12.5,1.66,20.44v7.09       h-34.39v17.5c0,3.52,0.33,6.39,0.98,8.6c0.65,2.21,1.71,3.85,3.17,4.9c1.46,1.06,3.34,1.58,5.66,1.58       c2.41,0,4.25-0.58,5.51-1.74c1.26-1.16,2.11-2.81,2.56-4.98c0.45-2.16,0.68-4.7,0.68-7.62V92.8h15.69v3.32       c0,8.75-1.86,15.64-5.58,20.67C809.57,121.82,803.24,124.33,794.29,124.33z M784.63,71.08h18.55v-7.84       c0-3.62-0.2-6.66-0.6-9.13c-0.4-2.46-1.23-4.32-2.49-5.58c-1.26-1.26-3.24-1.89-5.96-1.89c-2.62,0-4.6,0.6-5.96,1.81       c-1.36,1.21-2.29,3.24-2.79,6.11c-0.5,2.87-0.75,6.81-0.75,11.84V71.08z"/>
					<path class="st1" d="M856.89,124.33c-4.53,0-8.17-0.86-10.94-2.56c-2.77-1.71-4.78-4.12-6.04-7.24       c-1.26-3.12-1.88-6.79-1.88-11.01V46.64h-9.2V35.93h9.2V10.44h16.14v25.49h14.03v10.71h-14.03v55.81       c0,3.42,0.55,5.86,1.66,7.32c1.11,1.46,3.22,2.19,6.33,2.19c0.8,0,1.74-0.05,2.79-0.15c1.06-0.1,2.09-0.2,3.09-0.3v11.92       c-2.01,0.3-3.87,0.53-5.58,0.68C860.76,124.25,858.9,124.33,856.89,124.33z"/>
				</g>
			</g>
		</g>
	</g>
	<g>
		<polygon class="st2" points="1.09,31.24 1.09,120.05 98.83,210.34 98.83,121.53   "/>
		<polygon class="st2" points="16.33,16 16.33,104.82 114.07,195.11 114.07,106.29   "/>
		<polygon class="st2" points="31.56,0.77 31.56,89.58 129.3,179.88 129.3,91.06   "/>
	</g>
</g>
</svg>