<svg xmlns="http://www.w3.org/2000/svg" width="130" height="130" viewBox="0 0 130 130"><defs><style>.cls-1{fill:#fff;stroke:#fff;stroke-miterlimit:10;}.cls-2{fill:#55bbe7;}</style></defs><g id="Layer_1" data-name="Layer 1"><path class="cls-1" d="M13.79,69a7.8,7.8,0,0,1,3.6.89V29.39a12,12,0,0,1,12-12H34a7.78,7.78,0,0,1,0-7.21H29.39A19.23,19.23,0,0,0,10.18,29.39V69.9A7.84,7.84,0,0,1,13.79,69Z"/><rect class="cls-1" x="37.25" y="20.95" width="7.2" height="36.49"/><rect class="cls-1" x="85.54" y="20.95" width="7.2" height="22.39"/><rect class="cls-1" x="61.4" y="85.64" width="7.2" height="23.47"/><rect class="cls-1" x="21.53" y="73.18" width="19.32" height="7.2"/><rect class="cls-1" x="97.72" y="60.45" width="7.89" height="7.2"/><path class="cls-1" d="M116.21,75.43a11.38,11.38,0,1,1,11.38-11.38A11.38,11.38,0,0,1,116.21,75.43Zm0-15.54a4.17,4.17,0,1,0,4.17,4.16A4.16,4.16,0,0,0,116.21,59.89Z"/><path class="cls-1" d="M40.86,25.16A11.38,11.38,0,1,1,52.23,13.79,11.39,11.39,0,0,1,40.86,25.16Zm0-15.54A4.17,4.17,0,1,0,45,13.79,4.17,4.17,0,0,0,40.86,9.62Z"/><path class="cls-1" d="M57.23,116.21a7.67,7.67,0,0,1,.89-3.6H29.39a12,12,0,0,1-12-12v-17a7.75,7.75,0,0,1-7.21,0v17a19.23,19.23,0,0,0,19.21,19.21H58.12A7.71,7.71,0,0,1,57.23,116.21Z"/><path class="cls-1" d="M116.21,71.82a7.79,7.79,0,0,1-3.6-.88v29.67a12,12,0,0,1-12,12H71.88a7.75,7.75,0,0,1,0,7.21h28.73a19.23,19.23,0,0,0,19.21-19.21V70.94A7.83,7.83,0,0,1,116.21,71.82Z"/><path class="cls-1" d="M65,127.59a11.38,11.38,0,1,1,11.37-11.38A11.39,11.39,0,0,1,65,127.59Zm0-15.54a4.17,4.17,0,1,0,4.17,4.16A4.17,4.17,0,0,0,65,112.05Z"/><path class="cls-1" d="M13.79,88.15A11.37,11.37,0,1,1,25.16,76.78,11.39,11.39,0,0,1,13.79,88.15Zm0-15.54A4.17,4.17,0,1,0,18,76.78,4.17,4.17,0,0,0,13.79,72.61Z"/><path class="cls-1" d="M100.61,10.18H96a7.75,7.75,0,0,1,0,7.21h4.59a12,12,0,0,1,12,12V57.17a7.75,7.75,0,0,1,7.21,0V29.39A19.23,19.23,0,0,0,100.61,10.18Z"/><path class="cls-1" d="M82.26,17.39a7.75,7.75,0,0,1,0-7.21H47.74a7.75,7.75,0,0,1,0,7.21Z"/><path class="cls-1" d="M89.14,25.16a11.38,11.38,0,1,1,11.38-11.37A11.38,11.38,0,0,1,89.14,25.16Zm0-15.54a4.17,4.17,0,1,0,4.17,4.17A4.17,4.17,0,0,0,89.14,9.62Z"/><rect class="cls-2" x="31.9" y="54.55" width="17.92" height="44.15"/><rect class="cls-2" x="56.04" y="31.3" width="17.92" height="67.4"/><rect class="cls-2" x="80.18" y="41.21" width="17.92" height="57.48"/></g></svg>