<svg xmlns="http://www.w3.org/2000/svg" viewBox="0 0 1080 1080"><defs><style>.cls-1,.cls-2{fill:#fff;}.cls-2{opacity:0.7;}</style></defs><g id="fundo"><rect width="1080" height="1080"/></g><g id="logo"><path class="cls-1" d="M263.09,562V549.77a43.64,43.64,0,0,0,9.06-.76,10.19,10.19,0,0,0,5.35-2.71,11.17,11.17,0,0,0,2.64-5.66,48.61,48.61,0,0,0,.76-9.43V436.93h16.89v94.59q0,10.56-2.26,17.27a17.33,17.33,0,0,1-8,10Q281.8,562,271.24,562Z"/><path class="cls-1" d="M335.8,560.33q-10.71,0-17.19-6.71t-7.39-17.73l13.42-4.07q1.22,8.29,4.07,12.44a9.6,9.6,0,0,0,8.45,4.15q4.38,0,6.64-2.49a9.58,9.58,0,0,0,2.26-6.71,13.82,13.82,0,0,0-1.66-6.79,22.88,22.88,0,0,0-5.43-6.18L324,513.41a40.11,40.11,0,0,1-7.62-8.75q-3.09-4.82-3.09-12.52a22.76,22.76,0,0,1,2.79-11.69,18.19,18.19,0,0,1,7.84-7.24,26.51,26.51,0,0,1,11.84-2.49q10.41,0,15.92,6.72A28.48,28.48,0,0,1,358,493.65l-10.86,4.08a40,40,0,0,0-1.81-7.92,12.48,12.48,0,0,0-3.32-5.28,8.06,8.06,0,0,0-5.58-1.89,7.94,7.94,0,0,0-6.26,2.64,9.13,9.13,0,0,0-2.34,6.26,10.68,10.68,0,0,0,1,4.45,12.81,12.81,0,0,0,3.39,4.3l15.39,14.18a63.37,63.37,0,0,1,6,6.18,30.2,30.2,0,0,1,4.6,7.55,24.62,24.62,0,0,1,1.81,9.8,23.5,23.5,0,0,1-3,12.37,18.76,18.76,0,0,1-8.44,7.47A30.17,30.17,0,0,1,335.8,560.33Z"/><path class="cls-1" d="M372,587.78V471.93h16.14v6.94a27.77,27.77,0,0,1,6.94-5.73,18.56,18.56,0,0,1,9.65-2.42q6.79,0,10.79,3.55a21.64,21.64,0,0,1,6,8.9A46.33,46.33,0,0,1,424.05,494a88.92,88.92,0,0,1,.6,9.43v21.12A80.66,80.66,0,0,1,422.84,542a27.43,27.43,0,0,1-6.56,13.27q-4.75,5.06-13.35,5.06a15,15,0,0,1-8.3-2.34,35.14,35.14,0,0,1-6.48-5.36v35.15Zm27.75-40.12q4.23,0,6-3.1a20.08,20.08,0,0,0,2.26-8.37q.45-5.28.45-11.61V503.46a77.73,77.73,0,0,0-.6-10,16,16,0,0,0-2.56-7.32c-1.31-1.81-3.38-2.72-6.19-2.72a14,14,0,0,0-6,1.36,22.12,22.12,0,0,0-5,3.17v55.81a22.9,22.9,0,0,0,5.13,2.8A17.61,17.61,0,0,0,399.76,547.66Z"/><path class="cls-1" d="M439.74,559.12V471.93h16.14V484.3q4.83-8,9.65-10.71a19.57,19.57,0,0,1,9.66-2.72h1.13a10.68,10.68,0,0,1,1.43.15v17.8a26.37,26.37,0,0,0-4.14-1.28,21.77,21.77,0,0,0-4.76-.53,13.75,13.75,0,0,0-6.86,1.74q-3.09,1.74-6.11,6.71v63.66Z"/><path class="cls-1" d="M511.85,560.33q-10.26,0-15.84-4t-7.77-11.77a71.26,71.26,0,0,1-2.19-19.08V505.57q0-11.61,2.26-19.31a20.67,20.67,0,0,1,7.92-11.62q5.65-3.92,15.62-3.92,11,0,16.21,4.53t6.87,13.05a109.14,109.14,0,0,1,1.65,20.44v7.09H502.19v17.5a31.17,31.17,0,0,0,1,8.59,8.9,8.9,0,0,0,3.17,4.91,9.45,9.45,0,0,0,5.66,1.58,7.89,7.89,0,0,0,5.5-1.73,9.13,9.13,0,0,0,2.57-5,37.74,37.74,0,0,0,.68-7.62V528.8h15.68v3.32q0,13.13-5.58,20.67T511.85,560.33Zm-9.66-53.25h18.56v-7.85a58,58,0,0,0-.61-9.12,9.86,9.86,0,0,0-2.49-5.58c-1.26-1.26-3.24-1.89-6-1.89s-4.6.6-5.95,1.81-2.29,3.24-2.79,6.11a71.31,71.31,0,0,0-.76,11.84Z"/><path class="cls-1" d="M566.9,560.33a14.69,14.69,0,0,1-9-2.94,20.79,20.79,0,0,1-6.18-7.55,21.72,21.72,0,0,1-2.26-9.73,31.18,31.18,0,0,1,2.71-13.72,27.34,27.34,0,0,1,7.47-9.43,51.28,51.28,0,0,1,11-6.71q6.25-2.87,13.2-5.59v-6.18a52.76,52.76,0,0,0-.6-8.75,9,9,0,0,0-2.49-5.2q-1.89-1.74-5.66-1.74a8.72,8.72,0,0,0-5.35,1.51,8.44,8.44,0,0,0-3,4.3,21.45,21.45,0,0,0-.9,6.56v4.38l-16-.61q.3-14.48,6.64-21.34t19.61-6.87q13,0,18.4,7.09t5.43,20.52v39.82c0,2.72.08,5.33.23,7.85s.35,4.85.6,7,.48,4.2.68,6.11H586.67c-.31-1.61-.68-3.64-1.13-6.11s-.79-4.7-1-6.71a23.23,23.23,0,0,1-5.8,9.58Q574.44,560.34,566.9,560.33Zm6.34-13.88a8.2,8.2,0,0,0,4.53-1.36,20.65,20.65,0,0,0,3.77-3.09,16.47,16.47,0,0,0,2.26-2.79V514.47c-2.51,1.41-4.88,2.82-7.09,4.22a39.4,39.4,0,0,0-5.81,4.45,18,18,0,0,0-3.92,5.28,15.08,15.08,0,0,0-1.43,6.72q0,5.28,2,8.29A6.39,6.39,0,0,0,573.24,546.45Z"/><path class="cls-1" d="M635.69,560.33q-11,0-16.44-8.07t-5.43-27.38V508a96.57,96.57,0,0,1,1.66-18.48q1.65-8.52,6.26-13.65t13.5-5.13a16.56,16.56,0,0,1,8,2,27.91,27.91,0,0,1,6.49,4.83V436.93h16.14V559.12H649.72v-5.58a26,26,0,0,1-6.26,4.9A15.69,15.69,0,0,1,635.69,560.33Zm4.07-12.67a15.82,15.82,0,0,0,4.83-.83,21.59,21.59,0,0,0,5.13-2.49V487.17a25.8,25.8,0,0,0-4.68-2.64,13.58,13.58,0,0,0-5.58-1.14q-5.58,0-7.54,5.36a37.57,37.57,0,0,0-2,12.9v24.59a80.44,80.44,0,0,0,.68,10.93,16.3,16.3,0,0,0,2.79,7.7A7.44,7.44,0,0,0,639.76,547.66Z"/><path class="cls-1" d="M268.74,646.16V616.75h-6v-2.31h14.76v2.31h-5.79v29.41Z"/><path class="cls-1" d="M292,646.16V614.44h3V628.5h10V614.44h3v31.72h-3V630.73H295v15.43Z"/><path class="cls-1" d="M324.43,646.16V614.44H335.9v2.31h-8.46v11.9h6.9v2.2h-6.9v13.08H336v2.23Z"/><path class="cls-1" d="M367.51,647.53V645.3a12.62,12.62,0,0,0,2.6-.22,2.54,2.54,0,0,0,1.45-.8,3.33,3.33,0,0,0,.65-1.69,21.52,21.52,0,0,0,.15-2.82V614.44h3v25.49a16.54,16.54,0,0,1-.47,4.31,4,4,0,0,1-1.84,2.49,8.29,8.29,0,0,1-4.07.8Z"/><path class="cls-1" d="M390.1,646.16l6.7-31.72h3.13l6.74,31.72h-2.94l-1.56-8.5h-7.56l-1.61,8.5ZM395,635.51h6.73l-3.4-17.12Z"/><path class="cls-1" d="M425.62,646.16l-7.44-31.72H421l6,26.27,5.63-26.27h2.82l-7.16,31.72Z"/><path class="cls-1" d="M447,646.16l6.7-31.72h3.13l6.73,31.72H460.6l-1.57-8.5h-7.56l-1.6,8.5Zm4.93-10.65h6.74l-3.41-17.12Z"/><path class="cls-1" d="M485.07,646.55a7.83,7.83,0,0,1-4.28-1.08,6.65,6.65,0,0,1-2.57-3,13.71,13.71,0,0,1-1.06-4.53l2.63-.78a17.17,17.17,0,0,0,.7,3.55,5.3,5.3,0,0,0,1.61,2.5,4.49,4.49,0,0,0,3,.92A4.63,4.63,0,0,0,488.4,643a4.57,4.57,0,0,0,1.18-3.49,6.36,6.36,0,0,0-1-3.62,19,19,0,0,0-2.84-3.23l-5.6-5.37a10,10,0,0,1-2.19-3,8.1,8.1,0,0,1-.71-3.39,6.41,6.41,0,0,1,2-5.05,7.48,7.48,0,0,1,5.21-1.77,10.17,10.17,0,0,1,3,.43,5.6,5.6,0,0,1,2.31,1.39,6.54,6.54,0,0,1,1.51,2.49,14.87,14.87,0,0,1,.75,3.72l-2.55.67a14.17,14.17,0,0,0-.64-3.43,4.3,4.3,0,0,0-1.53-2.17,4.83,4.83,0,0,0-2.88-.75,4.9,4.9,0,0,0-3.21,1,3.84,3.84,0,0,0-1.26,3.17,5.61,5.61,0,0,0,.49,2.35,7.84,7.84,0,0,0,1.75,2.27l5.6,5.29a20.66,20.66,0,0,1,3.25,3.92,8.85,8.85,0,0,1,1.37,4.85,8,8,0,0,1-.92,4,5.92,5.92,0,0,1-2.57,2.41A8.6,8.6,0,0,1,485.07,646.55Z"/><path class="cls-1" d="M514.68,646.55a8,8,0,0,1-4.95-1.33,6.72,6.72,0,0,1-2.41-3.59,17.31,17.31,0,0,1-.67-5V624a17.54,17.54,0,0,1,.69-5.17,6.36,6.36,0,0,1,2.45-3.48,8.27,8.27,0,0,1,4.89-1.26,7.91,7.91,0,0,1,4.48,1.1,6,6,0,0,1,2.33,3.11,14.62,14.62,0,0,1,.71,4.8v1.92h-2.82v-1.84a16.65,16.65,0,0,0-.33-3.56,4,4,0,0,0-1.35-2.32,4.79,4.79,0,0,0-3-.82,5,5,0,0,0-3.19.88,4.39,4.39,0,0,0-1.45,2.49,16.48,16.48,0,0,0-.37,3.72v13.51a14.47,14.47,0,0,0,.45,3.92,4.15,4.15,0,0,0,1.55,2.35,5.1,5.1,0,0,0,3,.78,4.61,4.61,0,0,0,3-.86,4.23,4.23,0,0,0,1.35-2.41,17.52,17.52,0,0,0,.33-3.62v-2.08h2.82v1.88a17.24,17.24,0,0,1-.65,4.94,6.23,6.23,0,0,1-2.27,3.35A7.7,7.7,0,0,1,514.68,646.55Z"/><path class="cls-1" d="M537.83,646.16V614.44H545a9.55,9.55,0,0,1,4.68,1,5.46,5.46,0,0,1,2.45,2.78,11.29,11.29,0,0,1,.74,4.32,13.69,13.69,0,0,1-.39,3.33,6.34,6.34,0,0,1-1.33,2.67,4.62,4.62,0,0,1-2.66,1.45l4.85,16.21h-2.89l-4.66-15.59h-5v15.59Zm3-17.78h4a5.91,5.91,0,0,0,3.09-.67,3.68,3.68,0,0,0,1.57-2,9.67,9.67,0,0,0,.47-3.25,7.64,7.64,0,0,0-1-4.38c-.68-1-2-1.45-4-1.45H540.8Z"/><path class="cls-1" d="M568.92,646.16V614.44h3v31.72Z"/><path class="cls-1" d="M588.5,646.16V614.44h7.6a8.2,8.2,0,0,1,4.48,1,5.87,5.87,0,0,1,2.33,2.94,12.59,12.59,0,0,1,.71,4.43,11.39,11.39,0,0,1-.73,4.13,6.28,6.28,0,0,1-2.39,3,7.57,7.57,0,0,1-4.36,1.14h-4.66v15Zm3-17.23h3.8a7.26,7.26,0,0,0,3.11-.57,3.43,3.43,0,0,0,1.74-1.9,9.59,9.59,0,0,0,.55-3.6,12.06,12.06,0,0,0-.47-3.78,3,3,0,0,0-1.62-1.88,7.94,7.94,0,0,0-3.27-.53h-3.84Z"/><path class="cls-1" d="M622.3,646.16V616.75h-6v-2.31h14.76v2.31h-5.8v29.41Z"/><path class="cls-1" d="M671.25,646.55a7.89,7.89,0,0,1-4.29-1.08,6.69,6.69,0,0,1-2.56-3,13.46,13.46,0,0,1-1.06-4.53l2.62-.78a17.15,17.15,0,0,0,.71,3.55,5.29,5.29,0,0,0,1.6,2.5,4.52,4.52,0,0,0,3,.92,4,4,0,0,0,4.46-4.58,6.35,6.35,0,0,0-1-3.62,19.48,19.48,0,0,0-2.84-3.23l-5.6-5.37a10,10,0,0,1-2.2-3,8.1,8.1,0,0,1-.7-3.39,6.41,6.41,0,0,1,2-5.05,7.46,7.46,0,0,1,5.21-1.77,10.17,10.17,0,0,1,3,.43,5.66,5.66,0,0,1,2.31,1.39,6.67,6.67,0,0,1,1.51,2.49,15.37,15.37,0,0,1,.74,3.72l-2.54.67a14.14,14.14,0,0,0-.65-3.43,4.24,4.24,0,0,0-1.53-2.17,4.82,4.82,0,0,0-2.87-.75,5,5,0,0,0-3.22,1,3.87,3.87,0,0,0-1.25,3.17,5.46,5.46,0,0,0,.49,2.35,8,8,0,0,0,1.74,2.27l5.6,5.29a19.93,19.93,0,0,1,3.25,3.92,8.78,8.78,0,0,1,1.38,4.85,8,8,0,0,1-.92,4,5.92,5.92,0,0,1-2.57,2.41A8.63,8.63,0,0,1,671.25,646.55Z"/><path class="cls-1" d="M693.49,646.16V614.44h7.6a8.24,8.24,0,0,1,4.49,1,5.92,5.92,0,0,1,2.33,2.94,12.6,12.6,0,0,1,.7,4.43,11.6,11.6,0,0,1-.72,4.13,6.34,6.34,0,0,1-2.39,3,7.6,7.6,0,0,1-4.37,1.14h-4.66v15Zm3-17.23h3.8a7.23,7.23,0,0,0,3.11-.57,3.48,3.48,0,0,0,1.75-1.9,9.82,9.82,0,0,0,.54-3.6,11.77,11.77,0,0,0-.47-3.78,3,3,0,0,0-1.62-1.88,7.94,7.94,0,0,0-3.27-.53h-3.84Z"/><path class="cls-1" d="M723.38,646.16V614.44h7.16a9.55,9.55,0,0,1,4.68,1,5.46,5.46,0,0,1,2.45,2.78,11.29,11.29,0,0,1,.74,4.32,13.69,13.69,0,0,1-.39,3.33,6.34,6.34,0,0,1-1.33,2.67A4.62,4.62,0,0,1,734,630l4.85,16.21H736l-4.66-15.59h-5v15.59Zm3-17.78h4a5.91,5.91,0,0,0,3.09-.67,3.68,3.68,0,0,0,1.57-2,9.67,9.67,0,0,0,.47-3.25,7.64,7.64,0,0,0-1-4.38c-.68-1-2-1.45-4-1.45h-4.11Z"/><path class="cls-1" d="M754.35,646.16V614.44h11.48v2.31h-8.46v11.9h6.89v2.2h-6.89v13.08h8.54v2.23Z"/><path class="cls-1" d="M779.22,646.16l6.7-31.72h3.13l6.74,31.72h-2.94l-1.57-8.5h-7.56l-1.6,8.5Zm4.94-10.65h6.73l-3.41-17.12Z"/><path class="cls-1" d="M810.59,646.16V614.44h6.89a9.84,9.84,0,0,1,5.19,1.15,6.23,6.23,0,0,1,2.63,3.27,14.62,14.62,0,0,1,.76,4.9v12.61a16,16,0,0,1-.76,5.15,6.61,6.61,0,0,1-2.57,3.42,8.8,8.8,0,0,1-5,1.22Zm3-2.23h4a5.46,5.46,0,0,0,3.68-1,4.73,4.73,0,0,0,1.49-2.86,24.39,24.39,0,0,0,.31-4.13V624.07a16.32,16.32,0,0,0-.41-4,4.11,4.11,0,0,0-1.6-2.47,6.26,6.26,0,0,0-3.59-.84h-3.87Z"/><path class="cls-1" d="M848.7,646.55a7.85,7.85,0,0,1-4.29-1.08,6.71,6.71,0,0,1-2.57-3,14,14,0,0,1-1.06-4.53l2.63-.78a17.17,17.17,0,0,0,.7,3.55,5.3,5.3,0,0,0,1.61,2.5,4.51,4.51,0,0,0,3,.92A4.63,4.63,0,0,0,852,643a4.57,4.57,0,0,0,1.18-3.49,6.36,6.36,0,0,0-1-3.62,19,19,0,0,0-2.84-3.23l-5.6-5.37a10,10,0,0,1-2.19-3,8.1,8.1,0,0,1-.71-3.39,6.44,6.44,0,0,1,2-5.05,7.48,7.48,0,0,1,5.21-1.77,10.29,10.29,0,0,1,3,.43,5.66,5.66,0,0,1,2.31,1.39,6.53,6.53,0,0,1,1.5,2.49,14.87,14.87,0,0,1,.75,3.72l-2.55.67a14.17,14.17,0,0,0-.64-3.43,4.3,4.3,0,0,0-1.53-2.17,4.83,4.83,0,0,0-2.88-.75,4.9,4.9,0,0,0-3.21,1,3.84,3.84,0,0,0-1.25,3.17A5.46,5.46,0,0,0,844,623a7.61,7.61,0,0,0,1.74,2.27l5.6,5.29a20.66,20.66,0,0,1,3.25,3.92,8.85,8.85,0,0,1,1.37,4.85,8,8,0,0,1-.92,4,5.87,5.87,0,0,1-2.57,2.41A8.59,8.59,0,0,1,848.7,646.55Z"/><path class="cls-1" d="M870.9,646.16V614.44h3V628.5h10V614.44h3v31.72h-3V630.73h-10v15.43Z"/><path class="cls-1" d="M903.37,646.16V614.44h11.47v2.31h-8.46v11.9h6.89v2.2h-6.89v13.08h8.54v2.23Z"/><path class="cls-1" d="M929.92,646.16V614.44h11.47v2.31h-8.46v11.9h6.9v2.2h-6.9v13.08h8.54v2.23Z"/><path class="cls-1" d="M960.43,646.16V616.75h-6v-2.31H969.2v2.31h-5.8v29.41Z"/><path class="cls-1" d="M701.32,560.33q-10.73,0-17.2-6.71t-7.39-17.73l13.42-4.07q1.22,8.29,4.08,12.44a9.59,9.59,0,0,0,8.44,4.15q4.38,0,6.64-2.49a9.58,9.58,0,0,0,2.27-6.71,13.93,13.93,0,0,0-1.66-6.79,22.77,22.77,0,0,0-5.44-6.18l-14.93-12.83a40.11,40.11,0,0,1-7.62-8.75q-3.09-4.82-3.09-12.52a22.76,22.76,0,0,1,2.79-11.69,18.16,18.16,0,0,1,7.85-7.24,26.45,26.45,0,0,1,11.84-2.49q10.41,0,15.91,6.72a28.41,28.41,0,0,1,6.26,16.21l-10.86,4.08a39.3,39.3,0,0,0-1.81-7.92,12.48,12.48,0,0,0-3.32-5.28,8.06,8.06,0,0,0-5.58-1.89,7.94,7.94,0,0,0-6.26,2.64,9.13,9.13,0,0,0-2.34,6.26,10.84,10.84,0,0,0,1,4.45,13,13,0,0,0,3.4,4.3l15.38,14.18a62.22,62.22,0,0,1,6,6.18,29.91,29.91,0,0,1,4.6,7.55,24.62,24.62,0,0,1,1.81,9.8,23.5,23.5,0,0,1-3,12.37,18.84,18.84,0,0,1-8.45,7.47A30.15,30.15,0,0,1,701.32,560.33Z"/><path class="cls-1" d="M738,559.12V436.93h16.14V481a47,47,0,0,1,9.81-7.24,24.43,24.43,0,0,1,12.07-3q5.12,0,7.92,2.72a14.81,14.81,0,0,1,3.92,6.79,31,31,0,0,1,1.13,8.29v70.6H772.82V493.2a15.65,15.65,0,0,0-1.36-7.24c-.9-1.71-2.77-2.57-5.58-2.57a12.67,12.67,0,0,0-6,1.66,30.49,30.49,0,0,0-5.81,4.08v70Z"/><path class="cls-1" d="M828.78,560.33q-10.26,0-15.84-4t-7.76-11.77A71.26,71.26,0,0,1,803,525.48V505.57q0-11.61,2.26-19.31a20.67,20.67,0,0,1,7.92-11.62q5.66-3.92,15.61-3.92,11,0,16.22,4.53t6.86,13.05a108.22,108.22,0,0,1,1.66,20.44v7.09H819.13v17.5a31.17,31.17,0,0,0,1,8.59,8.9,8.9,0,0,0,3.17,4.91,9.42,9.42,0,0,0,5.65,1.58,7.9,7.9,0,0,0,5.51-1.73,9.06,9.06,0,0,0,2.56-5,37,37,0,0,0,.68-7.62V528.8h15.69v3.32q0,13.13-5.58,20.67T828.78,560.33Zm-9.65-53.25h18.55v-7.85a58.17,58.17,0,0,0-.6-9.12,9.86,9.86,0,0,0-2.49-5.58c-1.26-1.26-3.24-1.89-6-1.89a8.71,8.71,0,0,0-6,1.81c-1.35,1.21-2.28,3.24-2.79,6.11a72.61,72.61,0,0,0-.75,11.84Z"/><path class="cls-1" d="M892.29,560.33q-10.26,0-15.84-4t-7.77-11.77a71.26,71.26,0,0,1-2.19-19.08V505.57q0-11.61,2.27-19.31a20.67,20.67,0,0,1,7.92-11.62q5.66-3.92,15.61-3.92,11,0,16.22,4.53t6.86,13.05A108.22,108.22,0,0,1,917,508.74v7.09H882.64v17.5a30.78,30.78,0,0,0,1,8.59,8.94,8.94,0,0,0,3.16,4.91,9.47,9.47,0,0,0,5.66,1.58,7.91,7.91,0,0,0,5.51-1.73,9.12,9.12,0,0,0,2.56-5,37.74,37.74,0,0,0,.68-7.62V528.8h15.69v3.32q0,13.13-5.58,20.67T892.29,560.33Zm-9.65-53.25h18.55v-7.85a58.17,58.17,0,0,0-.6-9.12,10,10,0,0,0-2.49-5.58q-1.89-1.89-6-1.89c-2.62,0-4.6.6-6,1.81s-2.29,3.24-2.79,6.11a72.61,72.61,0,0,0-.75,11.84Z"/><path class="cls-1" d="M954.89,560.33q-6.78,0-10.93-2.57a14.75,14.75,0,0,1-6-7.24,29.27,29.27,0,0,1-1.88-11V482.64h-9.21V471.93H936V446.44h16.14v25.49h14v10.71h-14v55.81c0,3.43.55,5.86,1.66,7.32s3.21,2.19,6.33,2.19q1.22,0,2.79-.15l3.09-.3v11.91q-3,.45-5.58.68C958.76,560.25,956.9,560.33,954.89,560.33Z"/><polygon class="cls-2" points="99.09 467.24 99.09 556.05 196.84 646.34 196.84 557.53 99.09 467.24"/><polygon class="cls-2" points="114.33 452 114.33 540.82 212.07 631.11 212.07 542.29 114.33 452"/><polygon class="cls-2" points="129.56 436.77 129.56 525.58 227.3 615.88 227.3 527.06 129.56 436.77"/></g></svg>